<svg width="24" height="24" viewBox="0 0 24 24" fill="none" xmlns="http://www.w3.org/2000/svg">
<path d="M4.3393 3.515C4.5213 2.787 4.6123 2.424 4.8833 2.212C5.1553 2 5.5303 2 6.2803 2H17.1563C17.9063 2 18.2813 2 18.5533 2.212C18.8233 2.424 18.9153 2.787 19.0973 3.515L20.3003 8.329C20.3973 8.717 20.4463 8.91 20.4353 9.068C20.4216 9.26726 20.3486 9.45785 20.2256 9.61523C20.1026 9.77261 19.9353 9.88955 19.7453 9.951C19.5953 10 19.3913 10 18.9823 10C18.4493 10 18.1823 10 17.9593 9.948C17.6501 9.87598 17.3625 9.7314 17.1203 9.52621C16.8781 9.32102 16.6882 9.06112 16.5663 8.768C16.4773 8.556 16.4343 8.298 16.3493 7.785C16.3253 7.641 16.3133 7.569 16.2993 7.55C16.29 7.53719 16.2779 7.52677 16.2638 7.51958C16.2497 7.51239 16.2341 7.50864 16.2183 7.50864C16.2025 7.50864 16.1869 7.51239 16.1728 7.51958C16.1587 7.52677 16.1466 7.53719 16.1373 7.55C16.1233 7.569 16.1113 7.64 16.0873 7.785L16.0063 8.274L15.9883 8.374C15.9029 8.82355 15.6658 9.23021 15.3168 9.52611C14.9677 9.82202 14.5278 9.98929 14.0703 10H13.8663C13.3911 9.98926 12.9353 9.80965 12.5806 9.49337C12.2258 9.17709 11.9953 8.74481 11.9303 8.274L11.8493 7.784C11.8253 7.641 11.8133 7.569 11.7993 7.55C11.79 7.53719 11.7779 7.52677 11.7638 7.51958C11.7497 7.51239 11.7341 7.50864 11.7183 7.50864C11.7025 7.50864 11.6869 7.51239 11.6728 7.51958C11.6587 7.52677 11.6466 7.53719 11.6373 7.55C11.6233 7.569 11.6113 7.64 11.5873 7.785L11.5063 8.274L11.4883 8.374C11.4029 8.82355 11.1658 9.23021 10.8168 9.52611C10.4677 9.82202 10.0278 9.98929 9.5703 10H9.3663C8.90883 9.98929 8.46886 9.82202 8.11981 9.52611C7.77076 9.23021 7.53374 8.82355 7.4483 8.374L7.4303 8.274L7.3493 7.784C7.3253 7.641 7.3133 7.569 7.2993 7.55C7.29003 7.53719 7.27785 7.52677 7.26377 7.51958C7.24969 7.51239 7.23411 7.50864 7.2183 7.50864C7.20249 7.50864 7.18691 7.51239 7.17283 7.51958C7.15875 7.52677 7.14657 7.53719 7.1373 7.55C7.1233 7.569 7.1113 7.64 7.0873 7.785C7.0023 8.299 6.9593 8.555 6.8703 8.768C6.74852 9.06101 6.55877 9.32083 6.31672 9.52601C6.07468 9.73119 5.78729 9.87584 5.4783 9.948C5.2543 10 4.9883 10 4.4543 10C4.0453 10 3.8413 10 3.6913 9.951C3.50126 9.88955 3.33397 9.77261 3.21099 9.61523C3.08802 9.45785 3.01498 9.26726 3.0013 9.068C2.9913 8.91 3.0393 8.717 3.1363 8.329L4.3393 3.515Z" fill="#F8E7F3"/>
<path fill-rule="evenodd" clip-rule="evenodd" d="M4.73526 11.5001C4.71826 11.9211 4.71826 12.4151 4.71826 13.0001V19.0001C4.71826 19.9431 4.71826 20.4141 5.01126 20.7071C5.30426 21.0001 5.77526 21.0001 6.71826 21.0001H9.71826V17.0001C9.71826 16.7349 9.82362 16.4805 10.0112 16.293C10.1987 16.1054 10.453 16.0001 10.7183 16.0001H12.7183C12.9835 16.0001 13.2378 16.1054 13.4254 16.293C13.6129 16.4805 13.7183 16.7349 13.7183 17.0001V21.0001H16.7183C17.6613 21.0001 18.1323 21.0001 18.4253 20.7071C18.7183 20.4141 18.7183 19.9431 18.7183 19.0001V13.0001C18.7183 12.4151 18.7183 11.9211 18.7013 11.5001C18.3363 11.5001 17.9633 11.4891 17.6183 11.4091C17.1063 11.2898 16.6278 11.0567 16.2183 10.7271C15.6343 11.1971 14.8983 11.4811 14.1053 11.4991L13.9793 11.5001H13.8313C13.0609 11.4817 12.3182 11.2096 11.7183 10.7261C11.1343 11.1961 10.3983 11.4801 9.60526 11.4981L9.47926 11.4991H9.33126C8.56105 11.481 7.81832 11.2093 7.21826 10.7261C6.81426 11.0511 6.33826 11.2861 5.81826 11.4081C5.47326 11.4881 5.10026 11.4981 4.73526 11.4991" fill="#F8E7F3"/>
</svg>
