<svg width="42" height="28" viewBox="0 0 42 28" fill="none" xmlns="http://www.w3.org/2000/svg">
<g clip-path="url(#clip0_8_15)">
<path d="M32.5872 13.1332C33.2762 12.4177 33.2769 11.2572 32.5889 10.5411C31.9008 9.8251 30.7845 9.82466 30.0955 10.5402L16.2946 24.8722C15.6056 25.5877 15.6049 26.7482 16.2929 27.4643C16.981 28.1803 18.0973 28.1808 18.7863 27.4653L32.5872 13.1332Z" fill="#0ACDF5"/>
<path d="M32.1761 20.5632L32.1768 20.5624C33.0316 19.6747 33.0324 18.2347 32.1785 17.346L25.7269 10.6321C24.873 9.74348 23.4878 9.74272 22.6329 10.6304L22.6322 10.6312C21.7774 11.5189 21.7767 12.959 22.6306 13.8476L29.0821 20.5615C29.9361 21.4502 31.3213 21.4509 32.1761 20.5632Z" fill="#C0F7FC"/>
<path d="M35.2549 17.3659L35.2557 17.3652C36.1105 16.4774 36.1112 15.0374 35.2573 14.1488L28.8057 7.43486C27.9518 6.54621 26.5666 6.54546 25.7118 7.43317L25.711 7.43395C24.8562 8.32166 24.8555 9.76169 25.7094 10.6503L32.161 17.3643C33.0149 18.2529 34.4001 18.2537 35.2549 17.3659Z" fill="#0ACDF5"/>
<path d="M38.3331 14.1701L38.3338 14.1694C39.1886 13.2816 39.1894 11.8416 38.3354 10.953L31.8839 4.23905C31.0299 3.35041 29.6447 3.34966 28.7899 4.23737L28.7892 4.23815C27.9344 5.12586 27.9336 6.56589 28.7876 7.45453L35.2391 14.1685C36.093 15.0571 37.4783 15.0579 38.3331 14.1701Z" fill="#C0F7FC"/>
<path d="M41.3594 11.028L41.3602 11.0273C42.215 10.1396 42.2157 8.69953 41.3618 7.81089L34.9102 1.09697C34.0563 0.208321 32.6711 0.207566 31.8163 1.09528L31.8155 1.09606C30.9607 1.98377 30.96 3.4238 31.8139 4.31244L38.2655 11.0264C39.1194 11.915 40.5046 11.9158 41.3594 11.028Z" fill="#0ACDF5"/>
<path d="M12.4654 10.4834C11.7771 9.76719 10.6608 9.76641 9.97201 10.4817C9.28322 11.197 9.28281 12.3575 9.97108 13.0738L23.7575 27.4208C24.4458 28.1371 25.5621 28.1379 26.2509 27.4226C26.9397 26.7073 26.9401 25.5468 26.2518 24.8305L12.4654 10.4834Z" fill="#C0F7FC"/>
<path d="M10.561 1.87879C8.14498 -0.635445 4.22601 -0.637754 1.80769 1.87363C-0.610616 4.38502 -0.6125 8.45909 1.80349 10.9733L9.33332 18.8094C11.7493 21.3236 15.6683 21.3259 18.0866 18.8145C20.5049 16.3031 20.5068 12.2291 18.0908 9.71482L10.561 1.87879Z" fill="#0ACDF5"/>
</g>
<defs>
<clipPath id="clip0_8_15">
<rect width="42" height="28" fill="white"/>
</clipPath>
</defs>
</svg>
