<svg width="22" height="26" viewBox="0 0 22 26" fill="none" xmlns="http://www.w3.org/2000/svg">
<path d="M18.7785 19.34L17.2789 20.8676C16.1738 21.9848 14.7395 23.4213 12.9759 25.177C12.4458 25.7049 11.7373 26 11 26C10.2627 26 9.55419 25.7049 9.02412 25.177L4.61503 20.7583C4.05915 20.1979 3.59466 19.7252 3.22155 19.34C1.68325 17.7555 0.635682 15.7369 0.211309 13.5392C-0.213064 11.3416 0.00481855 9.06367 0.837405 6.99356C1.66999 4.92346 3.07989 3.15411 4.88881 1.90927C6.69774 0.66443 8.82444 0 11 0C13.1756 0 15.3023 0.66443 17.1112 1.90927C18.9201 3.15411 20.33 4.92346 21.1626 6.99356C21.9952 9.06367 22.2131 11.3416 21.7887 13.5392C21.3643 15.7369 20.3167 17.7555 18.7785 19.34ZM14.1596 11.6865C14.1596 10.8238 13.8269 9.9964 13.2346 9.38636C12.6423 8.77632 11.8389 8.4336 11.0013 8.4336C10.1636 8.4336 9.36027 8.77632 8.76795 9.38636C8.17564 9.9964 7.84289 10.8238 7.84289 11.6865C7.84289 12.5493 8.17564 13.3766 8.76795 13.9867C9.36027 14.5967 10.1636 14.9395 11.0013 14.9395C11.8389 14.9395 12.6423 14.5967 13.2346 13.9867C13.8269 13.3766 14.1596 12.5493 14.1596 11.6865Z" fill="#D1009D"/>
</svg>
