<svg width="42" height="48" viewBox="0 0 42 48" fill="none" xmlns="http://www.w3.org/2000/svg">
<path d="M35.8498 35.7046L32.9869 38.5248C30.8773 40.5874 28.1391 43.2394 24.7721 46.4807C23.7602 47.4552 22.4076 48 21 48C19.5924 48 18.2398 47.4552 17.2279 46.4807L8.8105 38.323C7.74929 37.2884 6.86253 36.4157 6.15023 35.7046C3.21348 32.7795 1.21357 29.0527 0.403408 24.9955C-0.406759 20.9383 0.00919904 16.7329 1.59868 12.9112C3.18817 9.08946 5.87979 5.82298 9.33319 3.52481C12.7866 1.22664 16.8467 0 21 0C25.1533 0 29.2134 1.22664 32.6668 3.52481C36.1202 5.82298 38.8118 9.08946 40.4013 12.9112C41.9908 16.7329 42.4068 20.9383 41.5966 24.9955C40.7864 29.0527 38.7865 32.7795 35.8498 35.7046ZM27.032 21.5751C27.032 19.9824 26.3968 18.4549 25.266 17.3287C24.1352 16.2024 22.6016 15.5697 21.0024 15.5697C19.4033 15.5697 17.8696 16.2024 16.7388 17.3287C15.608 18.4549 14.9728 19.9824 14.9728 21.5751C14.9728 23.1679 15.608 24.6954 16.7388 25.8216C17.8696 26.9478 19.4033 27.5805 21.0024 27.5805C22.6016 27.5805 24.1352 26.9478 25.266 25.8216C26.3968 24.6954 27.032 23.1679 27.032 21.5751Z" fill="#D1009D"/>
</svg>
