<svg width="15" height="17" viewBox="0 0 15 17" fill="none" xmlns="http://www.w3.org/2000/svg">
<path d="M12.3867 12.3863L11.3975 13.3646C10.6686 14.0802 9.7225 15.0002 8.55917 16.1246C8.20953 16.4627 7.7422 16.6517 7.25584 16.6517C6.76948 16.6517 6.30215 16.4627 5.9525 16.1246L3.04417 13.2946C2.6775 12.9357 2.37111 12.633 2.125 12.3863C1.11031 11.3715 0.41931 10.0787 0.139384 8.67118C-0.140542 7.2637 0.00317842 5.80483 0.552371 4.47903C1.10156 3.15323 2.03156 2.02005 3.22477 1.22279C4.41797 0.425534 5.82079 0 7.25584 0C8.69088 0 10.0937 0.425534 11.2869 1.22279C12.4801 2.02005 13.4101 3.15323 13.9593 4.47903C14.5085 5.80483 14.6522 7.2637 14.3723 8.67118C14.0924 10.0787 13.4014 11.3715 12.3867 12.3863ZM9.34 7.48463C9.34 6.9321 9.12051 6.40219 8.72981 6.01149C8.33911 5.62079 7.8092 5.4013 7.25667 5.4013C6.70414 5.4013 6.17423 5.62079 5.78353 6.01149C5.39283 6.40219 5.17334 6.9321 5.17334 7.48463C5.17334 8.03717 5.39283 8.56707 5.78353 8.95777C6.17423 9.34847 6.70414 9.56797 7.25667 9.56797C7.8092 9.56797 8.33911 9.34847 8.72981 8.95777C9.12051 8.56707 9.34 8.03717 9.34 7.48463Z" fill="#D1009D"/>
</svg>
