<svg width="21" height="21" viewBox="0 0 21 21" fill="none" xmlns="http://www.w3.org/2000/svg">
<path d="M13.0074 4.01374C13.9894 4.20496 14.8918 4.68429 15.5993 5.39039C16.3067 6.09648 16.787 6.99722 16.9786 7.97731M13.0074 0C15.0476 0.226211 16.95 1.13807 18.4024 2.58586C19.8548 4.03365 20.7708 5.93131 21 7.96727M19.9946 15.9747V18.985C19.9958 19.2644 19.9384 19.5411 19.8263 19.7971C19.7141 20.0532 19.5496 20.283 19.3433 20.4719C19.1369 20.6609 18.8934 20.8047 18.6281 20.8942C18.3629 20.9838 18.0818 21.017 17.803 20.9919C14.7093 20.6563 11.7377 19.6012 9.12674 17.9113C6.69763 16.3707 4.63816 14.3152 3.0946 11.8907C1.39553 9.27295 0.338161 6.29253 0.00816018 3.19092C-0.0169632 2.91344 0.0160773 2.63378 0.105177 2.36974C0.194278 2.1057 0.337486 1.86307 0.525683 1.65729C0.713881 1.45152 0.942945 1.28712 1.19829 1.17454C1.45364 1.06197 1.72967 1.0037 2.00882 1.00343H5.02489C5.51279 0.998642 5.9858 1.17109 6.35574 1.48863C6.72568 1.80617 6.96731 2.24714 7.0356 2.72934C7.1629 3.69271 7.39899 4.63861 7.73935 5.54899C7.87461 5.90815 7.90389 6.29847 7.82371 6.67372C7.74352 7.04897 7.55724 7.39342 7.28694 7.66624L6.01014 8.9406C7.44132 11.4527 9.52532 13.5328 12.0423 14.9612L13.3191 13.6869C13.5924 13.4171 13.9375 13.2311 14.3135 13.1511C14.6895 13.0711 15.0805 13.1003 15.4404 13.2353C16.3525 13.575 17.3002 13.8107 18.2654 13.9377C18.7538 14.0065 19.1998 14.252 19.5186 14.6276C19.8375 15.0031 20.0069 15.4826 19.9946 15.9747Z" fill="#D1009D"/>
</svg>
