<svg width="18" height="18" viewBox="0 0 18 18" fill="none" xmlns="http://www.w3.org/2000/svg">
<path d="M13.6484 3H4.35156C3.05273 3 2 4.05273 2 5.35156V14.6484C2 15.9473 3.05273 17 4.35156 17H13.6484C14.9473 17 16 15.9473 16 14.6484V5.35156C16 4.05273 14.9473 3 13.6484 3ZM13.0852 13.0406L12.9266 13.1992C11.5813 14.5445 9.41289 14.5855 8.01836 13.2922C7.20078 12.5348 6.41055 11.7445 5.64766 10.9188C4.3543 9.52422 4.39531 7.35586 5.74063 6.00781L5.77617 5.97227C6.06055 5.68789 6.52539 5.68789 6.80977 5.97227L8.15508 7.32031C8.43945 7.60469 8.43945 8.06953 8.15508 8.35391L7.6082 8.90078C7.37852 9.12773 7.34297 9.48594 7.5207 9.75664C7.98828 10.4621 8.54609 11.0336 9.20234 11.452C9.46484 11.6188 9.80391 11.5887 10.0336 11.3809L10.7828 10.6918C11.0699 10.4266 11.5184 10.4348 11.7945 10.7137L13.0852 12.0043C13.3723 12.2914 13.3723 12.7535 13.0852 13.0406Z" fill="white"/>
</svg>
