<svg width="14" height="15" viewBox="0 0 14 15" fill="none" xmlns="http://www.w3.org/2000/svg">
<path fill-rule="evenodd" clip-rule="evenodd" d="M1.78952 0C0.803336 0 0 0.878673 0 1.95741V10.0996C0 11.1783 0.803336 12.0571 1.78952 12.0571H3.27805C3.52669 12.0571 3.72179 12.2705 3.72179 12.5425V14.1707C3.72179 14.7756 4.32823 15.1856 4.82286 14.9151L9.44641 12.3863C9.84233 12.1698 10.2789 12.0571 10.7215 12.0571H12.2105C13.1967 12.0571 14 11.1783 14 10.0996V1.95741C14 0.878673 13.1967 0 12.2105 0H1.78952ZM2.53368 3.25669H11.4659C11.5457 3.25669 11.6222 3.29135 11.6786 3.35305C11.735 3.41475 11.7667 3.49844 11.7667 3.5857C11.7667 3.67296 11.735 3.75664 11.6786 3.81834C11.6222 3.88004 11.5457 3.91471 11.4659 3.91471H2.53368C2.4539 3.91471 2.3774 3.88004 2.32099 3.81834C2.26459 3.75664 2.2329 3.67296 2.23289 3.5857C2.2329 3.49844 2.26459 3.41475 2.32099 3.35305C2.3774 3.29135 2.4539 3.25669 2.53368 3.25669ZM2.53368 5.69932H11.4659C11.5457 5.69932 11.6222 5.73399 11.6786 5.79569C11.735 5.85739 11.7667 5.94107 11.7667 6.02833C11.7667 6.11559 11.735 6.19927 11.6786 6.26097C11.6222 6.32267 11.5457 6.35734 11.4659 6.35734H2.53368C2.4539 6.35734 2.3774 6.32267 2.32099 6.26097C2.26459 6.19927 2.2329 6.11559 2.23289 6.02833C2.2329 5.94107 2.26459 5.85739 2.32099 5.79569C2.3774 5.73399 2.4539 5.69932 2.53368 5.69932ZM2.53368 8.14201H11.4659C11.5457 8.14201 11.6222 8.17668 11.6786 8.23838C11.735 8.30008 11.7667 8.38376 11.7667 8.47102C11.7667 8.55828 11.735 8.64196 11.6786 8.70366C11.6222 8.76536 11.5457 8.80003 11.4659 8.80003H2.53368C2.4539 8.80003 2.3774 8.76536 2.32099 8.70366C2.26459 8.64196 2.2329 8.55828 2.23289 8.47102C2.2329 8.38376 2.26459 8.30008 2.32099 8.23838C2.3774 8.17668 2.4539 8.14201 2.53368 8.14201Z" fill="white"/>
</svg>
