<svg width="17" height="18" viewBox="0 0 17 18" fill="none" xmlns="http://www.w3.org/2000/svg">
<path fill-rule="evenodd" clip-rule="evenodd" d="M0.706956 1.29292C1.09748 0.902398 1.73064 0.902398 2.12117 1.29292L16.1212 15.2929C16.5117 15.6834 16.5117 16.3166 16.1212 16.7071C15.7306 17.0977 15.0975 17.0977 14.707 16.7071L0.706956 2.70714C0.316431 2.31661 0.316431 1.68345 0.706956 1.29292Z" fill="white" fill-opacity="0.8"/>
<path fill-rule="evenodd" clip-rule="evenodd" d="M16.1212 1.29292C15.7306 0.902398 15.0975 0.902398 14.707 1.29292L0.706956 15.2929C0.316432 15.6834 0.316431 16.3166 0.706956 16.7071C1.09748 17.0977 1.73065 17.0977 2.12117 16.7071L16.1212 2.70714C16.5117 2.31661 16.5117 1.68345 16.1212 1.29292Z" fill="white" fill-opacity="0.8"/>
</svg>
