<svg width="18" height="18" viewBox="0 0 18 18" fill="none" xmlns="http://www.w3.org/2000/svg">
<path fill-rule="evenodd" clip-rule="evenodd" d="M11.2108 12.4043C10.0686 13.2457 8.65068 13.6245 7.24105 13.4647C5.83142 13.3049 4.53422 12.6184 3.60932 11.5427C2.68442 10.467 2.20014 9.08159 2.25349 7.66394C2.30685 6.24629 2.8939 4.90115 3.89704 3.89802C4.90018 2.89488 6.24531 2.30783 7.66296 2.25447C9.08061 2.20112 10.4661 2.6854 11.5418 3.6103C12.6175 4.5352 13.304 5.8324 13.4637 7.24203C13.6235 8.65165 13.2447 10.0696 12.4033 11.2118L15.5027 14.31C15.5856 14.3873 15.6521 14.4804 15.6982 14.5839C15.7443 14.6874 15.7691 14.7991 15.7711 14.9124C15.7731 15.0257 15.7522 15.1383 15.7098 15.2433C15.6674 15.3484 15.6042 15.4438 15.5241 15.5239C15.444 15.6041 15.3485 15.6672 15.2435 15.7097C15.1384 15.7521 15.0259 15.7729 14.9126 15.7709C14.7993 15.7689 14.6876 15.7441 14.5841 15.698C14.4806 15.6519 14.3874 15.5854 14.3102 15.5025L11.2108 12.4043ZM11.8127 7.87502C11.8127 8.91931 11.3978 9.92083 10.6594 10.6593C9.92098 11.3977 8.91946 11.8125 7.87517 11.8125C6.83088 11.8125 5.82936 11.3977 5.09094 10.6593C4.35251 9.92083 3.93767 8.91931 3.93767 7.87502C3.93767 6.83073 4.35251 5.82921 5.09094 5.09079C5.82936 4.35237 6.83088 3.93752 7.87517 3.93752C8.91946 3.93752 9.92098 4.35237 10.6594 5.09079C11.3978 5.82921 11.8127 6.83073 11.8127 7.87502Z" fill="white"/>
</svg>
