<svg width="14" height="14" viewBox="0 0 14 14" fill="none" xmlns="http://www.w3.org/2000/svg">
<path d="M5.47482 8.86322L3.80665 7.19323C3.76303 7.14902 3.71108 7.11393 3.65381 7.08998C3.59653 7.06603 3.53508 7.05369 3.47302 7.05369C3.41095 7.05369 3.3495 7.06603 3.29223 7.08998C3.23496 7.11393 3.183 7.14902 3.13938 7.19323C3.09523 7.2369 3.06017 7.2889 3.03625 7.34624C3.01232 7.40357 3 7.46509 3 7.52722C3 7.58936 3.01232 7.65088 3.03625 7.70821C3.06017 7.76554 3.09523 7.81755 3.13938 7.86122L5.13642 9.86044C5.3223 10.0465 5.62257 10.0465 5.80845 9.86044L10.8606 4.80753C10.9048 4.76386 10.9398 4.71185 10.9638 4.65452C10.9877 4.59718 11 4.53567 11 4.47353C11 4.4114 10.9877 4.34988 10.9638 4.29255C10.9398 4.23521 10.9048 4.1832 10.8606 4.13953C10.817 4.09533 10.765 4.06024 10.7078 4.03629C10.6505 4.01233 10.5891 4 10.527 4C10.4649 4 10.4035 4.01233 10.3462 4.03629C10.2889 4.06024 10.237 4.09533 10.1934 4.13953L5.47482 8.86322Z" fill="white"/>
</svg>
