<svg width="16" height="16" viewBox="0 0 16 16" fill="none" xmlns="http://www.w3.org/2000/svg">
<path d="M5.47196 11.3808L14.241 2.32071C14.448 2.1069 14.6894 2 14.9653 2C15.2412 2 15.4827 2.1069 15.6896 2.32071C15.8965 2.53452 16 2.7886 16 3.08294C16 3.37728 15.8965 3.631 15.6896 3.8441L6.19624 13.6793C5.9893 13.8931 5.74788 14 5.47196 14C5.19604 14 4.95461 13.8931 4.74767 13.6793L0.29847 9.08241C0.091531 8.8686 -0.00780003 8.61488 0.000477552 8.32125C0.00875513 8.02762 0.116708 7.77354 0.324337 7.55902C0.531967 7.3445 0.77788 7.23759 1.06208 7.23831C1.34627 7.23902 1.59184 7.34592 1.79878 7.55902L5.47196 11.3808Z" fill="white" fill-opacity="0.9"/>
</svg>
