<svg width="15" height="15" viewBox="0 0 15 15" fill="none" xmlns="http://www.w3.org/2000/svg">
<path fill-rule="evenodd" clip-rule="evenodd" d="M3.25578 0.233845C6.07662 -0.0779484 8.92333 -0.0779484 11.7442 0.233845C13.306 0.408604 14.566 1.63647 14.7493 3.20111C15.0836 6.05732 15.0836 8.94268 14.7493 11.7989C14.566 13.3635 13.306 14.5914 11.7442 14.7662C8.92333 15.0779 6.07662 15.0779 3.25578 14.7662C1.69395 14.5914 0.43391 13.3635 0.250648 11.7989C-0.0835494 8.94298 -0.0835494 6.05793 0.250648 3.20202C0.343344 2.44188 0.690458 1.73527 1.23573 1.1967C1.78101 0.658131 2.49249 0.319171 3.25486 0.234755M7.49997 2.95535C7.68133 2.95535 7.85526 3.02728 7.9835 3.1553C8.11174 3.28332 8.18379 3.45696 8.18379 3.63801V6.81735H11.3685C11.5499 6.81735 11.7238 6.88927 11.8521 7.01729C11.9803 7.14531 12.0523 7.31895 12.0523 7.5C12.0523 7.68105 11.9803 7.85469 11.8521 7.98271C11.7238 8.11073 11.5499 8.18265 11.3685 8.18265H8.18379V11.362C8.18379 11.543 8.11174 11.7167 7.9835 11.8447C7.85526 11.9727 7.68133 12.0446 7.49997 12.0446C7.31862 12.0446 7.14469 11.9727 7.01645 11.8447C6.88821 11.7167 6.81616 11.543 6.81616 11.362V8.18265H3.63142C3.45006 8.18265 3.27613 8.11073 3.14789 7.98271C3.01965 7.85469 2.94761 7.68105 2.94761 7.5C2.94761 7.31895 3.01965 7.14531 3.14789 7.01729C3.27613 6.88927 3.45006 6.81735 3.63142 6.81735H6.81616V3.63801C6.81616 3.45696 6.88821 3.28332 7.01645 3.1553C7.14469 3.02728 7.31862 2.95535 7.49997 2.95535Z" fill="white"/>
</svg>
