<svg width="20" height="14" viewBox="0 0 20 14" fill="none" xmlns="http://www.w3.org/2000/svg">
<path d="M10.1998 0.27997C13.7298 0.27997 16.6298 2.88997 17.1198 6.27997H19.1998L15.6998 10.28L12.1998 6.27997H14.5198C14.2959 5.30116 13.7469 4.42714 12.9623 3.80056C12.1777 3.17397 11.2039 2.83183 10.1998 2.82997C8.7498 2.82997 7.4698 3.53997 6.6598 4.60997L4.9498 2.65997C5.60453 1.91178 6.41174 1.31231 7.31724 0.901818C8.22275 0.491322 9.2056 0.279295 10.1998 0.27997ZM9.7998 13.72C6.2798 13.72 3.3698 11.11 2.8798 7.71997H0.799805L4.2998 3.71997C5.4698 5.04997 6.6298 6.38997 7.7998 7.71997H5.4798C5.70369 8.69878 6.25273 9.5728 7.03732 10.1994C7.82191 10.826 8.79572 11.1681 9.7998 11.17C11.2498 11.17 12.5298 10.46 13.3398 9.38997L15.0498 11.34C14.3959 12.0892 13.5889 12.6893 12.6832 13.0999C11.7775 13.5105 10.7942 13.7219 9.7998 13.72Z" fill="white"/>
</svg>
