<svg width="14" height="14" viewBox="0 0 14 14" fill="none" xmlns="http://www.w3.org/2000/svg">
<path fill-rule="evenodd" clip-rule="evenodd" d="M7 0.25C5.20979 0.25 3.4929 0.961159 2.22703 2.22703C0.961159 3.4929 0.25 5.20979 0.25 7C0.25 8.79021 0.961159 10.5071 2.22703 11.773C3.4929 13.0388 5.20979 13.75 7 13.75H10.375C11.4235 13.75 11.9478 13.75 12.361 13.579C12.6341 13.4659 12.8822 13.3002 13.0912 13.0912C13.3002 12.8822 13.4659 12.6341 13.579 12.361C13.75 11.9478 13.75 11.4235 13.75 10.375V7C13.75 5.20979 13.0388 3.4929 11.773 2.22703C10.5071 0.961159 8.79021 0.25 7 0.25ZM4 6.25C4 6.05109 4.07902 5.86032 4.21967 5.71967C4.36032 5.57902 4.55109 5.5 4.75 5.5H9.25C9.44891 5.5 9.63968 5.57902 9.78033 5.71967C9.92098 5.86032 10 6.05109 10 6.25C10 6.44891 9.92098 6.63968 9.78033 6.78033C9.63968 6.92098 9.44891 7 9.25 7H4.75C4.55109 7 4.36032 6.92098 4.21967 6.78033C4.07902 6.63968 4 6.44891 4 6.25ZM6.25 9.25C6.25 9.05109 6.32902 8.86032 6.46967 8.71967C6.61032 8.57902 6.80109 8.5 7 8.5H9.25C9.44891 8.5 9.63968 8.57902 9.78033 8.71967C9.92098 8.86032 10 9.05109 10 9.25C10 9.44891 9.92098 9.63968 9.78033 9.78033C9.63968 9.92098 9.44891 10 9.25 10H7C6.80109 10 6.61032 9.92098 6.46967 9.78033C6.32902 9.63968 6.25 9.44891 6.25 9.25Z" fill="white"/>
</svg>
